<svg viewBox="0 0 80 84" width="80" height="84" xmlns="http://www.w3.org/2000/svg" fill="none">
  <defs>
    <clipPath id="cp-li">
      <path d="M 5,8 C 7,5 12,4 40,4 C 68,4 73,5 75,8 L 75,20 C 73,23 67,24 40,24 C 13,24 7,23 5,20 Z"/>
    </clipPath>
    <clipPath id="cp-lp">
      <path d="M 9,22 C 10,19 13,18 17,18 C 22,18 25,19 26,22 L 27,74 C 26,77 22,79 17,79 C 12,79 9,77 8,74 Z"/>
    </clipPath>
    <clipPath id="cp-rp">
      <path d="M 54,22 C 55,19 58,18 63,18 C 68,18 71,19 72,22 L 73,74 C 72,77 68,79 63,79 C 58,79 54,77 53,74 Z"/>
    </clipPath>
  </defs>

  <!-- Ground shadow -->
  <ellipse cx="40" cy="81" rx="28" ry="2.5" fill="#004CC1" opacity="0.14"/>

  <!-- Lintel -->
  <path d="M 5,8 C 7,5 12,4 40,4 C 68,4 73,5 75,8 L 75,20 C 73,23 67,24 40,24 C 13,24 7,23 5,20 Z"
        fill="rgba(0,76,193,0.07)" stroke="#004CC1" stroke-width="1.6" stroke-linejoin="round"/>
  <g clip-path="url(#cp-li)" stroke="#004CC1" stroke-width="0.85" opacity="0.48">
    <line x1="46" y1="4"  x2="68" y2="26"/>
    <line x1="53" y1="4"  x2="75" y2="26"/>
    <line x1="59" y1="4"  x2="75" y2="20"/>
    <line x1="65" y1="4"  x2="75" y2="14"/>
    <line x1="71" y1="5"  x2="75" y2="9"/>
  </g>

  <!-- Left pillar -->
  <path d="M 9,22 C 10,19 13,18 17,18 C 22,18 25,19 26,22 L 27,74 C 26,77 22,79 17,79 C 12,79 9,77 8,74 Z"
        fill="rgba(0,76,193,0.07)" stroke="#004CC1" stroke-width="1.6" stroke-linejoin="round"/>
  <g clip-path="url(#cp-lp)" stroke="#004CC1" stroke-width="0.85" opacity="0.42">
    <line x1="19" y1="18" x2="27" y2="36"/>
    <line x1="22" y1="18" x2="27" y2="26"/>
    <line x1="19" y1="36" x2="27" y2="54"/>
    <line x1="19" y1="54" x2="27" y2="72"/>
  </g>

  <!-- Right pillar -->
  <path d="M 54,22 C 55,19 58,18 63,18 C 68,18 71,19 72,22 L 73,74 C 72,77 68,79 63,79 C 58,79 54,77 53,74 Z"
        fill="rgba(0,76,193,0.07)" stroke="#004CC1" stroke-width="1.6" stroke-linejoin="round"/>
  <g clip-path="url(#cp-rp)" stroke="#004CC1" stroke-width="0.85" opacity="0.5">
    <line x1="54" y1="18" x2="73" y2="37"/>
    <line x1="54" y1="31" x2="73" y2="50"/>
    <line x1="54" y1="46" x2="73" y2="65"/>
    <line x1="54" y1="58" x2="73" y2="77"/>
    <line x1="59" y1="18" x2="73" y2="32"/>
    <line x1="65" y1="18" x2="73" y2="26"/>
  </g>
</svg>
